PathFileType	4	(X/Y/Z)	C:\Users\WrightLab\Desktop\Jo\P5V212.trc
DataRate	CameraRate	NumFrames	NumMarkers	Units	OrigDataRate	OrigDataStartFrame	OrigNumFrames
100.00	100.00	       9	19	mm	100.00	352	       469
Frame#	Time	Headset_Front			Headset_Back			Headset_Left			Headset_Right			Left_Shoulder			Right_Shoulder			Sternum			C7			Left Elbow			Right Elbow			Left Wrist			Right Wrist			Left ASIS			Right ASIS			S2			Left Knee			Right Knee			Left Ankle			Right Ankle			
		X1	Y1	Z1	X2	Y2	Z2	X3	Y3	Z3	X4	Y4	Z4	X5	Y5	Z5	X6	Y6	Z6	X7	Y7	Z7	X8	Y8	Z8	X9	Y9	Z9	X10	Y10	Z10	X11	Y11	Z11	X12	Y12	Z12	X13	Y13	Z13	X14	Y14	Z14	X15	Y15	Z15	X16	Y16	Z16	X17	Y17	Z17	X18	Y18	Z18	X19	Y19	Z19	

352	3.510										-540.03394	1570.27576	-53.83209	-177.11427	1525.61926	-220.92197	-574.83685	1459.45422	-170.96297	-369.46991	1323.85974	-128.14565	-406.40158	1537.89832	-323.58658	-79.54972	1235.55676	-235.83771	-719.44952	1226.53259	-99.55482	-127.28141	1005.52240	-140.59120	-754.88232	1120.74707	122.92290	-206.04955	945.42981	-132.74283	-494.39441	945.93951	-115.64053	-330.69394	992.29993	-396.57822	-189.50304	504.63705	-176.66992	-538.00226	496.22247	-185.48846	-241.53613	87.55667	-261.54431	-499.99091	94.85795	-244.43210	
353	3.520										-541.05719	1570.27307	-53.36613	-177.91629	1525.54895	-220.09131	-576.57599	1459.45361	-170.76276	-370.65295	1323.98901	-128.58408	-407.46097	1537.75012	-322.79556	-81.76505	1235.32861	-234.75478	-721.62604	1227.56873	-100.31786	-127.77167	1004.53271	-140.90279	-755.70068	1120.11365	123.75728	-208.34291	945.25421	-134.00381	-495.39407	945.66144	-115.77329	-331.62543	992.04596	-396.62354	-189.15453	504.72787	-176.65457	-540.06024	495.83560	-186.05658	-241.32411	87.56113	-261.30511	-500.03751	94.82903	-244.46451	
354	3.530										-541.70209	1570.07715	-52.01078	-179.47264	1525.33618	-219.05208	-577.64795	1459.45105	-169.91631	-371.68024	1323.95313	-127.40409	-408.62161	1537.77734	-321.93054	-82.09552	1235.17358	-235.04678	-722.64423	1227.35022	-100.22417	-128.54581	1004.03625	-141.63715	-756.35059	1119.65503	123.87257	-210.01842	945.12073	-134.18402	-496.13214	946.02130	-115.52176	-332.57614	991.82007	-396.00671	-188.97511	504.73837	-176.92834	-542.30780	495.12430	-186.33809	-241.91632	87.74731	-261.44781	-500.05304	94.79778	-244.48964	
355	3.540										-542.23633	1570.14673	-50.87896	-180.35405	1525.78821	-218.22266	-578.33911	1459.55139	-168.44284	-372.43454	1323.94531	-126.15457	-409.61447	1537.86011	-321.34341	-85.39580	1234.37878	-233.12550	-723.81232	1227.18823	-100.42802	-128.34552	1001.89386	-143.43927	-757.32941	1118.95679	123.75874	-210.89694	944.73517	-135.39630	-496.40512	945.12616	-114.96986	-333.59366	992.18610	-395.89902	-188.73752	504.85263	-176.95634	-544.06531	495.72968	-186.47188	-241.54617	88.01057	-261.45001	-500.04425	94.80045	-244.48613	
356	3.550										-542.22290	1569.99805	-50.32707	-181.47456	1525.90491	-217.91920	-579.35144	1459.48572	-168.52888	-373.75656	1323.17688	-126.40099	-410.76712	1538.05188	-320.39456	-86.72725	1234.66650	-233.46342	-724.88873	1226.91577	-99.83983	-128.44386	1001.42053	-144.09203	-757.97699	1118.59265	123.76584	-213.35349	944.35474	-136.52472	-497.67746	945.52679	-114.26088	-334.35156	991.90833	-397.77158	-188.55922	504.92661	-177.12404	-546.71033	495.30560	-185.88182	-241.53540	88.01711	-261.44818	-499.77618	94.49251	-244.26474	
357	3.560										-544.79541	1570.19397	-49.65359	-182.28192	1525.63220	-217.33965	-580.55414	1459.60278	-168.01723	-374.03250	1323.30249	-125.65076	-412.07938	1538.21411	-319.70444	-87.32556	1234.84448	-233.32179	-725.89178	1226.71411	-99.99831	-129.80826	1002.33264	-142.91339	-758.67969	1118.20105	123.52252	-214.81659	943.29846	-136.75546	-498.46649	945.21411	-114.52343	-335.73465	992.61896	-398.39365	-188.54207	504.90219	-177.42239	-548.71625	495.83395	-185.67300	-242.02347	88.36913	-261.57748	-499.72028	94.46497	-244.25142	
358	3.570										-545.40167	1569.71509	-48.09157	-182.98404	1525.55603	-217.53726	-582.35925	1459.41675	-167.79619	-375.17328	1323.58374	-124.51073	-413.12241	1538.33154	-319.83972	-87.43542	1234.35681	-232.62953	-726.81360	1226.64966	-100.01810	-130.44028	1001.71729	-143.61501	-759.27216	1117.63940	124.21320	-217.02539	943.78833	-138.30534	-499.32007	944.72217	-114.86166	-336.96844	992.75647	-398.10809	-188.24295	504.86200	-177.96237	-550.57001	495.48834	-185.75404	-242.07863	88.32014	-261.94324	-499.70123	94.47523	-244.22975	
359	3.580										-546.06287	1569.66125	-47.41813	-185.66386	1523.57239	-217.03529	-582.44440	1459.12598	-166.68088	-376.04138	1323.35803	-125.03313	-414.44467	1538.35022	-319.10904	-88.58949	1234.04065	-232.82352	-727.25647	1225.26831	-97.37690	-131.19656	1001.03741	-143.99722	-760.21198	1117.07922	124.14416	-218.43730	943.79596	-138.19269	-500.27536	944.78943	-114.11892	-338.10025	992.65240	-396.29712	-188.21487	504.88263	-177.96082	-552.41534	495.62848	-185.35655	-242.11719	88.39818	-261.67978	-499.68600	94.49222	-244.23145	
360	3.590										-546.76086	1568.92712	-46.40355	-185.49525	1525.53076	-216.60480	-582.93817	1458.83984	-165.99680	-377.54544	1323.02441	-124.44161	-415.44101	1538.38147	-318.54013	-90.20083	1234.81348	-232.45547	-728.16071	1224.85889	-97.38739	-131.84557	1000.34265	-144.32253	-761.23218	1116.78052	123.84879	-219.81317	943.80176	-139.31802	-500.72736	944.91083	-113.94497	-339.21548	992.75305	-396.60846	-187.98378	504.89508	-178.11646	-554.30377	494.85898	-183.67223	-242.48830	88.49535	-261.88300	-499.66318	94.48557	-244.20387	
